# xmcd
#
# Track frame offsets:
# 150
# 14940
# 29598
# 43759
# 56909
# 70292
# 88157
# 101502
# 109471
# 124360
# 139501
# 153604
# 167924
# 182135
# 195511
# 209520
# 222746
#
# Disc length: 3183 seconds
#
#
# Revision: 2
# Processed by: cddbd v1.5.1PL0 Copyright (c) Steve Scherf et al.
# Submitted via: FreeRIP 2.80 
#
DISCID=170c6d11
DTITLE=Louis Armstrong e Le Origini - La Grande Storia del Jazz CD1
DYEAR=1900
DGENRE=Blues
TTITLE0=Louis Armstrong Hot 5 and 7 - West End Blues
TTITLE1=Scott Joplin - Meaple leaf rag
TTITLE2=Louis Armstrong - I'm in the mood for love
TTITLE3=Louis Armstrong Hot 5 and 7 - Potato head blues
TTITLE4=Robert Johnson - Sweet home Chicago
TTITLE5=Fats Waller - Ain't misbehavin'
TTITLE6=Bessie Smith - Nobody knows you when you're down and out
TTITLE7=Jelly Roll Morton - King Porter stomp
TTITLE8=Jelly Roll Morton - Wolverine blues
TTITLE9=Louis Armstrong - St. James Infirmary
TTITLE10=Fats Waller - Honeysuckle rose
TTITLE11=Ma Rainey - Ma Rainey's black bottom
TTITLE12=Louis Armstrong - Black and blue (What did I do to be so)
TTITLE13=Leadbelly - C. C. Rider
TTITLE14=Original Dixieland Jazz Band - Tiger rag
TTITLE15=Meade Lux Lewis - Honky tonk train blues
TTITLE16=Louis Armstrong - Stardust
EXTD=
EXTT0=
EXTT1=
EXTT2=
EXTT3=
EXTT4=
EXTT5=
EXTT6=
EXTT7=
EXTT8=
EXTT9=
EXTT10=
EXTT11=
EXTT12=
EXTT13=
EXTT14=
EXTT15=
EXTT16=
PLAYORDER=
